<svg width="112" height="61" viewBox="0 0 112 61" fill="none" xmlns="http://www.w3.org/2000/svg">
<path d="M12.4738 46C10.8169 46 9.3632 45.7499 8.11269 45.2497C6.89344 44.7182 5.93992 43.8585 5.25214 42.6705C4.56436 41.4513 4.22047 39.7943 4.22047 37.6997V27.8051H0.234471V22.7405H4.22047L4.92388 16.4098H10.5512V22.7405H16.7412V27.8051H10.5512V37.7935C10.5512 38.919 10.7857 39.7006 11.2546 40.1382C11.7235 40.5446 12.5207 40.7479 13.6462 40.7479H16.6005V46H12.4738ZM26.4626 46.5627C24.6181 46.5627 23.0862 46.2501 21.867 45.6248C20.679 44.9996 19.8036 44.1555 19.2409 43.0926C18.6782 42.0296 18.3968 40.8573 18.3968 39.5755C18.3968 38.1374 18.7563 36.8713 19.4754 35.7771C20.2257 34.6829 21.3511 33.8388 22.8517 33.2448C24.3523 32.6195 26.2437 32.3069 28.5259 32.3069H34.3877C34.3877 31.1502 34.2157 30.1967 33.8719 29.4464C33.5592 28.6961 33.059 28.1333 32.3712 27.7582C31.7147 27.383 30.8706 27.1954 29.839 27.1954C28.6197 27.1954 27.5724 27.4768 26.6971 28.0395C25.853 28.571 25.3215 29.4151 25.1027 30.5718H18.9595C19.1471 28.8524 19.7098 27.3674 20.6477 26.1169C21.6169 24.8664 22.883 23.8972 24.4461 23.2094C26.0405 22.5217 27.8381 22.1778 29.839 22.1778C32.0899 22.1778 34.0282 22.5529 35.6538 23.3032C37.2795 24.0223 38.53 25.1008 39.4054 26.5389C40.2807 27.9458 40.7184 29.6652 40.7184 31.6973V46H35.4663L34.8097 42.3892H34.6222C34.122 43.0769 33.5749 43.6866 32.9809 44.218C32.4181 44.7495 31.7929 45.1872 31.1051 45.5311C30.4173 45.8749 29.6826 46.1251 28.9011 46.2814C28.1195 46.4689 27.3067 46.5627 26.4626 46.5627ZM28.5259 41.6857C29.4013 41.6857 30.1516 41.5451 30.7768 41.2637C31.4334 40.9511 31.9961 40.5446 32.465 40.0444C32.934 39.5442 33.2935 38.9659 33.5436 38.3094C33.825 37.6216 34.0125 36.9182 34.1063 36.1991H29.2293C28.2602 36.1991 27.463 36.3242 26.8377 36.5743C26.2437 36.7931 25.8061 37.1214 25.5247 37.5591C25.2433 37.9655 25.1027 38.45 25.1027 39.0128C25.1027 39.5755 25.2433 40.0601 25.5247 40.4665C25.8061 40.8729 26.2125 41.1855 26.7439 41.4044C27.2754 41.592 27.8694 41.6857 28.5259 41.6857ZM53.9902 46.5627C51.9268 46.5627 50.098 46.2188 48.5036 45.5311C46.9404 44.8433 45.6743 43.9054 44.7051 42.7174C43.7673 41.4982 43.2202 40.1226 43.0638 38.5907H49.3945C49.5196 39.1535 49.7697 39.6849 50.1449 40.1851C50.52 40.6853 51.0202 41.0917 51.6455 41.4044C52.302 41.6857 53.0523 41.8264 53.8964 41.8264C54.7717 41.8264 55.4752 41.717 56.0066 41.4982C56.5381 41.2481 56.9289 40.9354 57.179 40.5603C57.4603 40.1851 57.601 39.7787 57.601 39.341C57.601 38.747 57.3978 38.2937 56.9914 37.9811C56.6162 37.6372 56.0535 37.3402 55.3032 37.0901C54.5842 36.84 53.7244 36.5743 52.724 36.2929C51.6924 36.0115 50.6451 35.7146 49.5821 35.4019C48.5505 35.0893 47.5969 34.6985 46.7216 34.2296C45.8462 33.7294 45.1428 33.1041 44.6113 32.3538C44.1111 31.5722 43.861 30.6031 43.861 29.4464C43.861 28.1021 44.2362 26.8828 44.9865 25.7886C45.7368 24.6944 46.8154 23.8191 48.2222 23.1626C49.6603 22.506 51.3641 22.1778 53.3337 22.1778C56.1473 22.1778 58.3826 22.8187 60.0395 24.1004C61.7277 25.3822 62.7125 27.1486 62.9939 29.3995H57.0383C56.882 28.6179 56.4756 28.0083 55.819 27.5706C55.1938 27.1329 54.3653 26.9141 53.3337 26.9141C52.2395 26.9141 51.3954 27.1329 50.8014 27.5706C50.2386 27.977 49.9573 28.4772 49.9573 29.0712C49.9573 29.5089 50.1449 29.884 50.52 30.1967C50.8952 30.478 51.4423 30.7438 52.1613 30.9939C52.9116 31.2127 53.8026 31.4628 54.8343 31.7442C56.4912 32.1819 58.0074 32.6508 59.383 33.151C60.7586 33.6512 61.8528 34.339 62.6656 35.2143C63.4784 36.0584 63.8848 37.2621 63.8848 38.8252C63.9161 40.3258 63.5253 41.6545 62.7125 42.8112C61.8997 43.9679 60.7586 44.8902 59.2892 45.578C57.8199 46.2345 56.0535 46.5627 53.9902 46.5627ZM82.4791 46L72.3031 33.1979L81.2598 22.7405H88.7629L77.1801 35.824L77.1332 30.8063L90.3104 46H82.4791ZM66.9102 46V13.1741H73.2409V46H66.9102ZM100.839 46.5627C98.7752 46.5627 96.9463 46.2188 95.3519 45.5311C93.7888 44.8433 92.5226 43.9054 91.5535 42.7174C90.6156 41.4982 90.0685 40.1226 89.9122 38.5907H96.2429C96.3679 39.1535 96.618 39.6849 96.9932 40.1851C97.3684 40.6853 97.8686 41.0917 98.4938 41.4044C99.1503 41.6857 99.9006 41.8264 100.745 41.8264C101.62 41.8264 102.323 41.717 102.855 41.4982C103.386 41.2481 103.777 40.9354 104.027 40.5603C104.309 40.1851 104.449 39.7787 104.449 39.341C104.449 38.747 104.246 38.2937 103.84 37.9811C103.465 37.6372 102.902 37.3402 102.152 37.0901C101.433 36.84 100.573 36.5743 99.5724 36.2929C98.5407 36.0115 97.4934 35.7146 96.4305 35.4019C95.3988 35.0893 94.4453 34.6985 93.5699 34.2296C92.6946 33.7294 91.9912 33.1041 91.4597 32.3538C90.9595 31.5722 90.7094 30.6031 90.7094 29.4464C90.7094 28.1021 91.0845 26.8828 91.8348 25.7886C92.5851 24.6944 93.6637 23.8191 95.0705 23.1626C96.5086 22.506 98.2124 22.1778 100.182 22.1778C102.996 22.1778 105.231 22.8187 106.888 24.1004C108.576 25.3822 109.561 27.1486 109.842 29.3995H103.887C103.73 28.6179 103.324 28.0083 102.667 27.5706C102.042 27.1329 101.214 26.9141 100.182 26.9141C99.0878 26.9141 98.2437 27.1329 97.6497 27.5706C97.087 27.977 96.8056 28.4772 96.8056 29.0712C96.8056 29.5089 96.9932 29.884 97.3684 30.1967C97.7435 30.478 98.2906 30.7438 99.0096 30.9939C99.76 31.2127 100.651 31.4628 101.683 31.7442C103.34 32.1819 104.856 32.6508 106.231 33.151C107.607 33.6512 108.701 34.339 109.514 35.2143C110.327 36.0584 110.733 37.2621 110.733 38.8252C110.764 40.3258 110.374 41.6545 109.561 42.8112C108.748 43.9679 107.607 44.8902 106.138 45.578C104.668 46.2345 102.902 46.5627 100.839 46.5627Z" fill="#0F172A"/>
</svg>
