<svg width="111" height="34" viewBox="0 0 111 34" fill="none" xmlns="http://www.w3.org/2000/svg">
<path d="M12.4738 33C10.8169 33 9.3632 32.7499 8.11269 32.2497C6.89344 31.7182 5.93992 30.8585 5.25214 29.6705C4.56436 28.4513 4.22047 26.7943 4.22047 24.6997V14.8051H0.234471V9.74051H4.22047L4.92388 3.4098H10.5512V9.74051H16.7412V14.8051H10.5512V24.7935C10.5512 25.919 10.7857 26.7006 11.2546 27.1382C11.7235 27.5446 12.5207 27.7479 13.6462 27.7479H16.6005V33H12.4738ZM26.4626 33.5627C24.6181 33.5627 23.0862 33.2501 21.867 32.6248C20.679 31.9996 19.8036 31.1555 19.2409 30.0926C18.6782 29.0296 18.3968 27.8573 18.3968 26.5755C18.3968 25.1374 18.7563 23.8713 19.4754 22.7771C20.2257 21.6829 21.3511 20.8388 22.8517 20.2448C24.3523 19.6195 26.2437 19.3069 28.5259 19.3069H34.3877C34.3877 18.1502 34.2157 17.1967 33.8719 16.4464C33.5592 15.6961 33.059 15.1333 32.3712 14.7582C31.7147 14.383 30.8706 14.1954 29.839 14.1954C28.6197 14.1954 27.5724 14.4768 26.6971 15.0395C25.853 15.571 25.3215 16.4151 25.1027 17.5718H18.9595C19.1471 15.8524 19.7098 14.3674 20.6477 13.1169C21.6169 11.8664 22.883 10.8972 24.4461 10.2094C26.0405 9.52167 27.8381 9.17778 29.839 9.17778C32.0899 9.17778 34.0282 9.55293 35.6538 10.3032C37.2795 11.0223 38.53 12.1008 39.4054 13.5389C40.2807 14.9458 40.7184 16.6652 40.7184 18.6973V33H35.4663L34.8097 29.3892H34.6222C34.122 30.0769 33.5749 30.6866 32.9809 31.218C32.4181 31.7495 31.7929 32.1872 31.1051 32.5311C30.4173 32.8749 29.6826 33.1251 28.9011 33.2814C28.1195 33.4689 27.3067 33.5627 26.4626 33.5627ZM28.5259 28.6857C29.4013 28.6857 30.1516 28.5451 30.7768 28.2637C31.4334 27.9511 31.9961 27.5446 32.465 27.0444C32.934 26.5442 33.2935 25.9659 33.5436 25.3094C33.825 24.6216 34.0125 23.9182 34.1063 23.1991H29.2293C28.2602 23.1991 27.463 23.3242 26.8377 23.5743C26.2437 23.7931 25.8061 24.1214 25.5247 24.5591C25.2433 24.9655 25.1027 25.45 25.1027 26.0128C25.1027 26.5755 25.2433 27.0601 25.5247 27.4665C25.8061 27.8729 26.2125 28.1855 26.7439 28.4044C27.2754 28.592 27.8694 28.6857 28.5259 28.6857ZM53.9902 33.5627C51.9268 33.5627 50.098 33.2188 48.5036 32.5311C46.9404 31.8433 45.6743 30.9054 44.7051 29.7174C43.7673 28.4982 43.2202 27.1226 43.0638 25.5907H49.3945C49.5196 26.1535 49.7697 26.6849 50.1449 27.1851C50.52 27.6853 51.0202 28.0917 51.6455 28.4044C52.302 28.6857 53.0523 28.8264 53.8964 28.8264C54.7717 28.8264 55.4752 28.717 56.0066 28.4982C56.5381 28.2481 56.9289 27.9354 57.179 27.5603C57.4603 27.1851 57.601 26.7787 57.601 26.341C57.601 25.747 57.3978 25.2937 56.9914 24.9811C56.6162 24.6372 56.0535 24.3402 55.3032 24.0901C54.5842 23.84 53.7244 23.5743 52.724 23.2929C51.6924 23.0115 50.6451 22.7146 49.5821 22.4019C48.5505 22.0893 47.5969 21.6985 46.7216 21.2296C45.8462 20.7294 45.1428 20.1041 44.6113 19.3538C44.1111 18.5722 43.861 17.6031 43.861 16.4464C43.861 15.1021 44.2362 13.8828 44.9865 12.7886C45.7368 11.6944 46.8154 10.8191 48.2222 10.1626C49.6603 9.50604 51.3641 9.17778 53.3337 9.17778C56.1473 9.17778 58.3826 9.81866 60.0395 11.1004C61.7277 12.3822 62.7125 14.1486 62.9939 16.3995H57.0383C56.882 15.6179 56.4756 15.0083 55.819 14.5706C55.1938 14.1329 54.3653 13.9141 53.3337 13.9141C52.2395 13.9141 51.3954 14.1329 50.8014 14.5706C50.2386 14.977 49.9573 15.4772 49.9573 16.0712C49.9573 16.5089 50.1449 16.884 50.52 17.1967C50.8952 17.478 51.4423 17.7438 52.1613 17.9939C52.9116 18.2127 53.8026 18.4628 54.8343 18.7442C56.4912 19.1819 58.0074 19.6508 59.383 20.151C60.7586 20.6512 61.8528 21.339 62.6656 22.2143C63.4784 23.0584 63.8848 24.2621 63.8848 25.8252C63.9161 27.3258 63.5253 28.6545 62.7125 29.8112C61.8997 30.9679 60.7586 31.8902 59.2892 32.578C57.8199 33.2345 56.0535 33.5627 53.9902 33.5627ZM82.4791 33L72.3031 20.1979L81.2598 9.74051H88.7629L77.1801 22.824L77.1332 17.8063L90.3104 33H82.4791ZM66.9102 33V0.174101H73.2409V33H66.9102ZM100.839 33.5627C98.7752 33.5627 96.9463 33.2188 95.3519 32.5311C93.7888 31.8433 92.5226 30.9054 91.5535 29.7174C90.6156 28.4982 90.0685 27.1226 89.9122 25.5907H96.2429C96.3679 26.1535 96.618 26.6849 96.9932 27.1851C97.3684 27.6853 97.8686 28.0917 98.4938 28.4044C99.1503 28.6857 99.9006 28.8264 100.745 28.8264C101.62 28.8264 102.323 28.717 102.855 28.4982C103.386 28.2481 103.777 27.9354 104.027 27.5603C104.309 27.1851 104.449 26.7787 104.449 26.341C104.449 25.747 104.246 25.2937 103.84 24.9811C103.465 24.6372 102.902 24.3402 102.152 24.0901C101.433 23.84 100.573 23.5743 99.5724 23.2929C98.5407 23.0115 97.4934 22.7146 96.4305 22.4019C95.3988 22.0893 94.4453 21.6985 93.5699 21.2296C92.6946 20.7294 91.9912 20.1041 91.4597 19.3538C90.9595 18.5722 90.7094 17.6031 90.7094 16.4464C90.7094 15.1021 91.0845 13.8828 91.8348 12.7886C92.5851 11.6944 93.6637 10.8191 95.0705 10.1626C96.5086 9.50604 98.2124 9.17778 100.182 9.17778C102.996 9.17778 105.231 9.81866 106.888 11.1004C108.576 12.3822 109.561 14.1486 109.842 16.3995H103.887C103.73 15.6179 103.324 15.0083 102.667 14.5706C102.042 14.1329 101.214 13.9141 100.182 13.9141C99.0878 13.9141 98.2437 14.1329 97.6497 14.5706C97.087 14.977 96.8056 15.4772 96.8056 16.0712C96.8056 16.5089 96.9932 16.884 97.3684 17.1967C97.7435 17.478 98.2906 17.7438 99.0096 17.9939C99.76 18.2127 100.651 18.4628 101.683 18.7442C103.34 19.1819 104.856 19.6508 106.231 20.151C107.607 20.6512 108.701 21.339 109.514 22.2143C110.327 23.0584 110.733 24.2621 110.733 25.8252C110.764 27.3258 110.374 28.6545 109.561 29.8112C108.748 30.9679 107.607 31.8902 106.138 32.578C104.668 33.2345 102.902 33.5627 100.839 33.5627Z" fill="#F8FAFC"/>
</svg>
